# xmcd
#
# Track frame offsets:
#	150
#	17418
#	32365
#	47843
#	61487
#	72349
#	91583
#	107269
#	123705
#	135640
#	148810
#	163708
#
# Disc length: 2383 seconds
#
# Revision: 0
# Processed by: cddbd v1.5.1PL0 Copyright (c) Steve Scherf et al.
# Submitted via: EasyCDDAExtractor 7.1.3.1
#
DISCID=9c094d0c
DTITLE=Shania Twain - Pickin' On Shania Twain
DYEAR=2000
DGENRE=Country
TTITLE0=Whose Bed Have Your Boots Been Under?
TTITLE1=You Win My Love
TTITLE2=Love Gets Me Every Time
TTITLE3=You're Still The One
TTITLE4=Dance With The One That Brought You
TTITLE5=The Woman In Me (Needs The Man In You)
TTITLE6=That Don't Impress Me Much
TTITLE7=If You're Not In It For Love (I'm Outta Here)
TTITLE8=Any Man Of Mine
TTITLE9=What Made You Say That?
TTITLE10=Honey I'm Home
TTITLE11=From This Moment On
EXTD=
EXTT0=
EXTT1=
EXTT2=
EXTT3=
EXTT4=
EXTT5=
EXTT6=
EXTT7=
EXTT8=
EXTT9=
EXTT10=
EXTT11=
PLAYORDER=
